<?xml version="1.0" encoding="utf-8"?>
<!-- Generator: Adobe Illustrator 27.7.0, SVG Export Plug-In . SVG Version: 6.00 Build 0)  -->
<svg version="1.1" id="b" xmlns="http://www.w3.org/2000/svg" xmlns:xlink="http://www.w3.org/1999/xlink" x="0px" y="0px"
	 viewBox="0 0 16 16" style="enable-background:new 0 0 16 16;" xml:space="preserve">
<style type="text/css">
	.st0{fill:#333333;}
	.st1{fill:#FFFFFF;}
</style>
<g id="c">
	<path class="st0" d="M16,16H0V0h16V16z"/>
	<path class="st1" d="M8.9,2.5H5.3c-0.8,0-1.4,0.6-1.4,1.4v8.2c0,0.8,0.6,1.4,1.4,1.4h5.5c0.8,0,1.4-0.6,1.4-1.4V5.7
		c0-0.2-0.1-0.4-0.2-0.5L9.4,2.7C9.2,2.6,9.1,2.5,8.9,2.5z M9,4.9V3.5l2.1,2.1H9.7C9.3,5.6,9,5.3,9,4.9z M10,7.9L7.9,10
		c-0.1,0.1-0.4,0.1-0.5,0c0,0,0,0,0,0l-1-1c-0.1-0.1-0.1-0.4,0-0.5c0.1-0.1,0.4-0.1,0.5,0l0.8,0.8l1.8-1.8c0.1-0.1,0.4-0.1,0.5,0
		C10.1,7.5,10.1,7.8,10,7.9z"/>
</g>
</svg>
